<?xml version="1.0" encoding="utf-8"?>
<!-- Generator: Adobe Illustrator 16.0.0, SVG Export Plug-In . SVG Version: 6.00 Build 0)  -->
<!DOCTYPE svg PUBLIC "-//W3C//DTD SVG 1.1//EN" "http://www.w3.org/Graphics/SVG/1.1/DTD/svg11.dtd">
<svg version="1.1" id="Calque_1" xmlns="http://www.w3.org/2000/svg" xmlns:xlink="http://www.w3.org/1999/xlink" x="0px" y="0px"
	 width="18px" height="18px" viewBox="0 0 18 18" enable-background="new 0 0 18 18" xml:space="preserve">
<g>
	<path fill="#D68807" d="M618.96,694.302h-21.961c-1.104,0-2-0.896-2-2c0-1.104,0.896-2,2-2h21.961c1.104,0,2,0.896,2,2
		C620.96,693.406,620.064,694.302,618.96,694.302z"/>
</g>
<g>
	<path fill="#D68807" d="M618.96,694.302c-0.512,0-1.022-0.194-1.414-0.586l-9.936-9.936c-0.781-0.781-0.781-2.047,0-2.828
		c0.78-0.781,2.047-0.781,2.828,0l9.936,9.936c0.781,0.781,0.781,2.047,0,2.828C619.983,694.106,619.472,694.302,618.96,694.302z"/>
</g>
<g>
	<path fill="#D68807" d="M609.024,704.237c-0.513,0-1.023-0.195-1.414-0.586c-0.781-0.781-0.781-2.047,0-2.828l9.936-9.937
		c0.781-0.78,2.047-0.78,2.828,0c0.781,0.781,0.781,2.047,0,2.828l-9.937,9.937C610.048,704.042,609.536,704.237,609.024,704.237z"
		/>
</g>
<path fill="#D68807" d="M17.748,9.759c0.02-0.032,0.035-0.067,0.055-0.103c0.023-0.045,0.051-0.088,0.072-0.137
	c0.018-0.044,0.029-0.09,0.043-0.138c0.012-0.04,0.025-0.079,0.035-0.12c0.035-0.179,0.035-0.362,0-0.542
	c-0.01-0.041-0.023-0.08-0.035-0.119c-0.014-0.047-0.025-0.094-0.043-0.139c-0.021-0.047-0.049-0.091-0.072-0.135
	c-0.02-0.035-0.035-0.07-0.055-0.103c-0.053-0.077-0.109-0.148-0.174-0.212l-6.873-6.873c-0.541-0.54-1.417-0.54-1.956,0
	c-0.541,0.541-0.541,1.359,0,1.9l4.51,4.455H1.405c-0.765,0-1.384,0.735-1.384,1.5c0,0.764,0.619,1.5,1.384,1.5h11.851l-4.51,4.451
	c-0.541,0.541-0.541,1.385,0,1.926c0.27,0.271,0.624,0.391,0.979,0.391c0.353,0,0.707-0.143,0.978-0.412l6.873-6.875
	C17.639,9.912,17.695,9.835,17.748,9.759z"/>
</svg>
