<?xml version="1.0" encoding="utf-8"?>
<!-- Generator: Adobe Illustrator 16.0.0, SVG Export Plug-In . SVG Version: 6.00 Build 0)  -->
<!DOCTYPE svg PUBLIC "-//W3C//DTD SVG 1.1//EN" "http://www.w3.org/Graphics/SVG/1.1/DTD/svg11.dtd">
<svg version="1.1" id="Calque_1" xmlns="http://www.w3.org/2000/svg" xmlns:xlink="http://www.w3.org/1999/xlink" x="0px" y="0px"
	 width="18.849px" height="18.879px" viewBox="0 0 18.849 18.879" enable-background="new 0 0 18.849 18.879" xml:space="preserve">
<g>
	<g>
		<path fill="#FFFFFF" d="M14.791,18.879L14.791,18.879c-0.248,0-0.481-0.096-0.658-0.272l-2.697-2.698l3.344-1.098l1.1-3.345
			l2.697,2.697c0.36,0.363,0.362,0.952,0.002,1.313l-3.131,3.131C15.271,18.783,15.038,18.879,14.791,18.879z M12.73,16.218
			l1.897,1.896c0.086,0.085,0.239,0.087,0.324,0l3.131-3.132c0.089-0.088,0.089-0.235,0-0.325l-1.896-1.896l-0.854,2.603
			L12.73,16.218z"/>
	</g>
	<g>
		<path fill="#FFFFFF" d="M5.215,9.62c-0.241-0.36-0.523-0.937-0.495-1.637c0.034-0.81-0.559-1.413-0.564-1.419L1.38,3.131
			C1.371,3.119,1.357,3.104,1.342,3.092C1.134,3.109,0.929,2.967,0.814,2.819L0.36,2.356l1.967-1.965l0.492,0.48
			c0.123,0.093,0.26,0.286,0.242,0.501c0.014,0.017,0.031,0.032,0.04,0.04l3.404,2.75c0.032,0.029,0.66,0.619,1.446,0.59
			c0.708-0.025,1.305,0.265,1.67,0.517L9.226,5.844C8.948,5.652,8.501,5.436,7.98,5.449C7.391,5.474,6.901,5.271,6.556,5.066
			l-1.519,1.52c0.201,0.341,0.406,0.839,0.382,1.424C5.398,8.523,5.611,8.957,5.795,9.23L5.215,9.62z M2.503,3.41l2.11,2.612
			l1.379-1.379L3.379,2.533L2.503,3.41z M1.382,2.38c0.26,0,0.472,0.227,0.539,0.309l0.141,0.174l0.771-0.771L2.661,1.955
			C2.575,1.884,2.332,1.661,2.349,1.387L2.333,1.372L1.341,2.363c0.006,0.01,0.007,0.016,0.002,0.02
			C1.357,2.38,1.37,2.38,1.382,2.38z"/>
	</g>
	<g>
		<path fill="#FFFFFF" d="M0.848,2.856L0.112,2.101c-0.141-0.219-0.152-0.47,0.041-0.662L1.41,0.183
			C1.506,0.085,1.634,0.03,1.768,0.03h0.095l0.141,0.063l0.823,0.786L0.848,2.856z M0.787,1.793l0.068,0.07l0.978-0.978l-0.07-0.068
			L0.787,1.793z"/>
	</g>
	<g>
		<polygon fill="#FFFFFF" points="11.989,16.461 9.177,13.65 9.671,13.158 12.178,15.665 14.779,14.811 15.634,12.209 13.096,9.671 
			13.589,9.178 16.432,12.02 15.333,15.363 		"/>
	</g>
	<g>
		<path fill="#FFFFFF" d="M13.396,9.972L9.405,5.98l0,0c-0.001,0-0.071-0.06-0.18-0.136L8.811,5.556l0.415-0.287
			c0.343-0.236,0.893-0.518,1.568-0.518l0.101,0.002c0.002,0,0.002,0,0.004,0c0.826,0,1.409-0.561,1.417-0.566l3.433-2.775
			c0.012-0.011,0.025-0.024,0.037-0.039c-0.02-0.216,0.124-0.413,0.272-0.527l0.819-0.801l0.204-0.015
			c0.132,0,0.26,0.054,0.358,0.153l1.257,1.257c0.19,0.191,0.181,0.444,0.087,0.598l-0.299,0.315l0.002,0.002l-0.483,0.496
			c-0.023,0.036-0.202,0.241-0.46,0.241h-0.051c-0.004,0.012-0.02,0.029-0.027,0.038l-2.749,3.405
			c-0.031,0.032-0.092,0.096-0.167,0.201l-0.01,0.01c-0.163,0.225-0.438,0.687-0.414,1.234c0.029,0.699-0.252,1.275-0.493,1.635
			L13.396,9.972z M10.028,5.618l3.232,3.231c0.104-0.237,0.181-0.523,0.167-0.837c-0.025-0.588,0.185-1.089,0.383-1.423L12.29,5.067
			c-0.322,0.191-0.786,0.386-1.33,0.386l-0.095-0.002c-0.002,0-0.002,0-0.004,0C10.531,5.451,10.254,5.523,10.028,5.618z
			 M12.855,4.645l1.378,1.38l2.109-2.614l-0.876-0.875L12.855,4.645z M16.015,2.093l0.771,0.771l0.138-0.173
			c0.08-0.095,0.284-0.311,0.54-0.311l0.043-0.017l-0.992-0.991v0c-0.008,0.005-0.014,0.006-0.018,0.003
			c0.023,0.28-0.224,0.507-0.309,0.577L16.015,2.093z M17.009,0.881l0.982,0.983l0.07-0.071l-0.982-0.981L17.009,0.881z"/>
	</g>
	<g>
		<path fill="#FFFFFF" d="M4.058,18.879c-0.248,0-0.481-0.096-0.656-0.271l-3.131-3.133c-0.361-0.36-0.361-0.949,0-1.311
			l5.288-5.286l0.236,0.35c0.089,0.132,0.16,0.212,0.166,0.22l3.958,3.955l-5.205,5.205C4.538,18.783,4.306,18.879,4.058,18.879z
			 M2.661,12.763l-1.896,1.896c-0.09,0.09-0.09,0.235,0,0.323l3.13,3.132c0.084,0.085,0.237,0.087,0.324,0l1.896-1.896l-2.602-0.853
			L2.661,12.763z M4.066,14.811l2.603,0.854l2.261-2.262L5.474,9.949l-2.26,2.26L4.066,14.811z"/>
	</g>
	<g>
		<path fill="#FFFFFF" d="M9.178,13.65L5.455,9.929C5.442,9.917,5.343,9.807,5.216,9.62l0.578-0.391
			c0.089,0.132,0.16,0.212,0.166,0.22l3.709,3.709L9.178,13.65z"/>
	</g>
	<g>
		<path fill="#FFFFFF" d="M7.012,10.992l-0.495-0.494l3.704-3.703L9.405,5.98l0,0c-0.001,0-0.071-0.06-0.18-0.136l0.398-0.573
			c0.165,0.113,0.263,0.204,0.263,0.204l3.703,3.703l-0.493,0.494l-2.382-2.382L7.012,10.992z"/>
	</g>
</g>
</svg>
