<?xml version="1.0" encoding="utf-8"?>
<!-- Generator: Adobe Illustrator 16.0.0, SVG Export Plug-In . SVG Version: 6.00 Build 0)  -->
<!DOCTYPE svg PUBLIC "-//W3C//DTD SVG 1.1//EN" "http://www.w3.org/Graphics/SVG/1.1/DTD/svg11.dtd">
<svg version="1.1" id="Calque_1" xmlns="http://www.w3.org/2000/svg" xmlns:xlink="http://www.w3.org/1999/xlink" x="0px" y="0px"
	 width="20px" height="18.879px" viewBox="0 0 20 18.879" enable-background="new 0 0 20 18.879" xml:space="preserve">
<g>
	<g>
		<path fill="#FFFFFF" d="M11.512,5.534H0.882c-0.469,0-0.85-0.382-0.85-0.851V0.851C0.032,0.381,0.413,0,0.882,0h10.624
			c0.052,0.001,1.014,0.037,1.677,0.758c0.454,0.495,1.174,0.506,1.183,0.506l3.805,0.403c0.009,0.001,0.013,0.004,0.013,0.009
			c0.074-0.084,0.206-0.17,0.427-0.17l0.961,0.015c0.247,0.052,0.427,0.217,0.427,0.478v1.537c0,0.26-0.178,0.425-0.345,0.467
			l-0.988,0.023c-0.213,0.017-0.382-0.073-0.464-0.153l-3.801,0.395c-0.043,0.002-0.763,0.015-1.217,0.509
			c-0.663,0.72-1.625,0.756-1.666,0.757H11.512z M11.495,0.7H0.882c-0.083,0-0.151,0.067-0.151,0.151v3.832
			c0,0.083,0.068,0.152,0.151,0.152h10.617c0.057-0.003,0.728-0.052,1.168-0.532c0.666-0.724,1.654-0.732,1.697-0.732l3.829-0.404
			c0.241,0,0.383,0.078,0.466,0.162l0.64-0.01V2.209l-0.644-0.001c-0.082,0.083-0.223,0.159-0.462,0.159l-0.097-0.004l-3.771-0.4
			c-0.014-0.003-0.996-0.012-1.659-0.731C12.21,0.732,11.502,0.7,11.495,0.7z"/>
	</g>
	<g>
		<rect x="18.608" y="1.862" fill="#FFFFFF" width="0.699" height="1.81"/>
	</g>
	<g>
		<rect x="17.257" y="1.959" fill="#FFFFFF" width="0.699" height="1.616"/>
	</g>
	<g>
		<rect x="13.761" y="1.591" fill="#FFFFFF" width="0.699" height="2.353"/>
	</g>
	<g>
		<rect x="9.856" y="0.35" fill="#FFFFFF" width="0.699" height="4.834"/>
	</g>
	<g>
		<polygon fill="#FFFFFF" points="3.383,5.342 2.08,2.768 3.383,0.192 4.008,0.507 2.864,2.768 4.008,5.025 		"/>
	</g>
</g>
<g>
	<g>
		<path fill="#FFFFFF" d="M19.146,12.252H8.521c-0.051-0.002-1.012-0.039-1.675-0.758C6.393,11,5.673,10.986,5.667,10.986
			l-3.807-0.402c-0.009,0-0.014-0.002-0.015-0.006c-0.075,0.083-0.207,0.168-0.428,0.168L0.458,10.73
			c-0.247-0.052-0.427-0.215-0.427-0.477V8.715c0-0.262,0.18-0.425,0.346-0.467l0.985-0.023c0.002,0,0.004,0,0.007,0
			c0.239,0,0.378,0.075,0.459,0.152l3.8-0.395C5.671,7.981,6.391,7.97,6.846,7.474C7.509,6.755,8.471,6.718,8.51,6.716h10.636
			c0.469,0,0.851,0.382,0.851,0.851V11.4C19.997,11.869,19.615,12.252,19.146,12.252z M5.708,10.289
			c0.079,0,1.013,0.035,1.653,0.731c0.458,0.5,1.167,0.533,1.172,0.533h10.614c0.084,0,0.152-0.068,0.152-0.152V7.567
			c0-0.083-0.068-0.152-0.152-0.152H8.521c0.006,0-0.702,0.033-1.162,0.533C6.694,8.672,5.708,8.681,5.667,8.681L1.833,9.084
			c-0.239,0-0.38-0.078-0.462-0.161L0.731,8.933v1.102l0.641,0.008c0.001,0,0.001,0,0.002,0c0.082-0.083,0.223-0.16,0.46-0.16
			l0.098,0.004l3.771,0.401C5.703,10.289,5.705,10.289,5.708,10.289z"/>
	</g>
	<g>
		<rect x="0.72" y="8.579" fill="#FFFFFF" width="0.7" height="1.809"/>
	</g>
	<g>
		<rect x="2.072" y="8.677" fill="#FFFFFF" width="0.7" height="1.615"/>
	</g>
	<g>
		<rect x="5.568" y="8.307" fill="#FFFFFF" width="0.699" height="2.354"/>
	</g>
	<g>
		<rect x="9.473" y="7.066" fill="#FFFFFF" width="0.7" height="4.836"/>
	</g>
	<g>
		<polygon fill="#FFFFFF" points="16.646,12.059 16.022,11.744 17.165,9.483 16.022,7.225 16.646,6.909 17.948,9.483 		"/>
	</g>
</g>
<g>
	<g>
		<path fill="#FFFFFF" d="M11.512,18.879H0.882c-0.469,0-0.85-0.383-0.85-0.85v-3.834c0-0.469,0.381-0.85,0.85-0.85h10.624
			c0.052,0.002,1.014,0.037,1.677,0.756c0.454,0.496,1.174,0.508,1.183,0.508l3.805,0.402c0.009,0.002,0.013,0.002,0.015,0.006
			c0.075-0.082,0.206-0.168,0.429-0.168l0.957,0.016c0.246,0.053,0.427,0.215,0.427,0.477v1.539c0,0.262-0.181,0.424-0.349,0.465
			l-0.984,0.025c-0.003,0-0.005,0-0.007,0c-0.238,0-0.378-0.074-0.458-0.154l-3.8,0.395c-0.043,0.002-0.763,0.014-1.217,0.51
			c-0.661,0.719-1.625,0.756-1.666,0.758H11.512z M11.495,14.045H0.882c-0.083,0-0.151,0.066-0.151,0.15v3.834
			c0,0.084,0.068,0.15,0.151,0.15h10.617c0.058-0.004,0.728-0.053,1.168-0.533c0.666-0.723,1.654-0.73,1.697-0.73l3.829-0.404
			c0.24,0,0.381,0.076,0.463,0.16l0.643-0.01v-1.107l-0.642-0.004c-0.087,0.09-0.228,0.16-0.464,0.16l-0.097-0.004l-3.771-0.4
			c-0.014-0.002-0.996-0.012-1.659-0.73C12.21,14.076,11.502,14.045,11.495,14.045z"/>
	</g>
	<g>
		<rect x="18.608" y="15.207" fill="#FFFFFF" width="0.699" height="1.811"/>
	</g>
	<g>
		<rect x="17.257" y="15.305" fill="#FFFFFF" width="0.699" height="1.615"/>
	</g>
	<g>
		<rect x="13.761" y="14.936" fill="#FFFFFF" width="0.699" height="2.354"/>
	</g>
	<g>
		<rect x="9.856" y="13.695" fill="#FFFFFF" width="0.699" height="4.834"/>
	</g>
	<g>
		<polygon fill="#FFFFFF" points="3.383,18.688 2.08,16.111 3.383,13.537 4.008,13.852 2.864,16.111 4.008,18.371 		"/>
	</g>
</g>
</svg>
