<?xml version="1.0" encoding="utf-8"?>
<!-- Generator: Adobe Illustrator 16.0.0, SVG Export Plug-In . SVG Version: 6.00 Build 0)  -->
<!DOCTYPE svg PUBLIC "-//W3C//DTD SVG 1.1//EN" "http://www.w3.org/Graphics/SVG/1.1/DTD/svg11.dtd">
<svg version="1.1" id="Calque_1" xmlns="http://www.w3.org/2000/svg" xmlns:xlink="http://www.w3.org/1999/xlink" x="0px" y="0px"
	 width="67.619px" height="113.548px" viewBox="0 0 67.619 113.548" enable-background="new 0 0 67.619 113.548"
	 xml:space="preserve">
<g>
	<path fill="#FFFFFF" d="M38.894,96.392c0,3.053,0,6.326-0.001,9.601c0,0.84,0.016,1.68-0.009,2.519
		c-0.082,2.841-2.252,5.003-5.036,5.037c-2.821,0.034-5.087-2.146-5.128-5.054c-0.052-3.759-0.016-7.519-0.018-11.277
		c0-0.354,0-0.71,0-0.756c-3.211-1.187-6.322-2.107-9.232-3.46c-5.9-2.741-10.272-7.221-13.585-12.77
		c-5.17-8.657-6.226-18.191-5.8-27.988c0.36-8.27,2.308-16.186,5.9-23.666c2.979-6.205,6.878-11.775,11.614-16.773
		c3.561-3.759,7.482-7.072,11.76-9.987c3.424-2.334,5.22-2.452,8.619-0.164c10.361,6.977,18.465,15.959,23.809,27.295
		c4.994,10.594,6.605,21.763,5.501,33.401c-0.591,6.225-2.232,12.076-5.341,17.498c-3.52,6.138-8.373,10.882-14.908,13.707
		C44.458,94.669,41.721,95.419,38.894,96.392z M49.427,27.45c-4.75,1.544-8.487,5.578-10.017,10.628
		c-0.251,0.83-0.181,1.317,0.548,1.897c3.006,2.395,5.405,5.321,7.094,8.78c0.882,1.807,1.595,3.696,2.373,5.522
		c2.578-1.034,5.156-2.068,7.859-3.152C56.619,42.663,54.029,34.768,49.427,27.45z M18.19,27.387
		c-4.624,7.402-7.245,15.289-7.884,23.73c2.732,1.092,5.31,2.123,7.982,3.191c1.676-5.962,4.92-10.877,9.727-14.76
		c0.204-0.165,0.303-0.655,0.232-0.938C26.874,33.166,23.416,29.579,18.19,27.387z M28.448,85.645
		c0.766-8.629-9.201-21.683-17.827-23.479c-0.086,3.613,2.251,11.435,6.306,16.197C20.012,81.984,23.81,84.435,28.448,85.645z
		 M39.149,85.581c10.591-2.458,16.998-12.832,17.859-23.346C48.762,63.67,38.721,76.739,39.149,85.581z M33.818,68.622
		c1.911-2.278,3.957-4.704,5.978-7.15c0.181-0.219,0.29-0.578,0.275-0.864c-0.26-5.095-2.458-9.228-6.294-12.688
		c-3.894,3.446-6.053,7.634-6.337,12.757c-0.013,0.24,0.165,0.533,0.333,0.735C29.809,63.857,31.86,66.291,33.818,68.622z
		 M24.274,19.066c3.936,2.009,6.952,4.508,9.487,7.787c2.557-3.257,5.605-5.817,9.535-7.812c-3.241-2.835-6.287-5.5-9.509-8.317
		C30.545,13.567,27.5,16.237,24.274,19.066z"/>
</g>
</svg>
