<?xml version="1.0" encoding="utf-8"?>
<!-- Generator: Adobe Illustrator 16.0.0, SVG Export Plug-In . SVG Version: 6.00 Build 0)  -->
<!DOCTYPE svg PUBLIC "-//W3C//DTD SVG 1.1//EN" "http://www.w3.org/Graphics/SVG/1.1/DTD/svg11.dtd">
<svg version="1.1" id="Calque_1" xmlns="http://www.w3.org/2000/svg" xmlns:xlink="http://www.w3.org/1999/xlink" x="0px" y="0px"
	 width="1190.5px" height="682.271px" viewBox="164 -134 1190.5 682.271" enable-background="new 164 -134 1190.5 682.271"
	 xml:space="preserve">
<g>
</g>
<path fill="none" stroke="#1D1D1B" stroke-width="3" stroke-linejoin="round" stroke-miterlimit="10" d="M1352.026,478.365
	c-3.406,0-6.168-2.76-6.168-6.166c0-3.404,2.762-6.166,6.168-6.166v-17.145c-3.406,0-6.168-2.76-6.168-6.166
	c0-3.404,2.762-6.166,6.168-6.166v-17.145c-3.406,0-6.168-2.762-6.168-6.166c0-3.406,2.762-6.166,6.168-6.166v-17.148
	c-3.406,0-6.166-2.762-6.166-6.166c0-3.406,2.76-6.166,6.166-6.166v-17.146c-3.406,0-6.168-2.764-6.168-6.168
	s2.762-6.166,6.168-6.166l-0.002-17.146c-3.404,0-6.166-2.762-6.166-6.168c0-3.404,2.762-6.166,6.166-6.166v-17.146
	c-3.404,0-6.166-2.762-6.166-6.168c0-3.402,2.762-6.166,6.166-6.166v-17.148c-3.404,0-6.166-2.76-6.166-6.166
	c0-3.404,2.762-6.166,6.166-6.166v-17.146c-3.404,0-6.166-2.762-6.166-6.168c0-3.404,2.762-6.166,6.166-6.166v-17.15
	c-3.406,0-6.166-2.762-6.166-6.168c0-3.404,2.762-6.166,6.168-6.166v-17.146c-3.406,0-6.168-2.762-6.168-6.167
	c0-3.404,2.762-6.166,6.168-6.166V154.08c-3.406,0-6.168-2.761-6.168-6.166c0-3.406,2.762-6.166,6.168-6.166V124.6
	c-3.406,0-6.166-2.762-6.166-6.166c0-3.406,2.76-6.167,6.166-6.167V95.12c-3.406,0-6.168-2.762-6.168-6.168
	c0-3.404,2.762-6.166,6.168-6.166l-0.002-17.146c-3.404,0-6.166-2.761-6.166-6.167c0-3.405,2.762-6.167,6.166-6.167V36.159
	c-3.404,0-6.166-2.761-6.166-6.167c0-3.405,2.762-6.167,6.166-6.167V6.678c-3.404,0-6.166-2.761-6.166-6.167
	c0-3.405,2.762-6.166,6.166-6.166v-17.148c-3.404,0-6.166-2.761-6.166-6.167c0-3.405,2.762-6.166,6.166-6.166V-52.29
	c-3.404,0-6.166-2.761-6.166-6.167c0-3.405,2.762-6.166,6.166-6.166v-6.238c-33.812,0-61.22-27.409-61.22-61.219H228.129
	c0,33.81-27.408,61.219-61.22,61.219l0.002,4.905c3.406,0,6.167,2.761,6.167,6.167c0,3.405-2.761,6.166-6.167,6.166v17.148
	c3.406,0,6.167,2.761,6.167,6.167c0,3.405-2.761,6.166-6.167,6.166v17.148c3.406,0,6.167,2.761,6.167,6.167
	c0,3.405-2.761,6.166-6.167,6.166v17.148c3.406,0,6.166,2.761,6.166,6.166c0,3.406-2.76,6.167-6.166,6.167v17.147
	c3.406,0,6.167,2.762,6.167,6.168c0,3.405-2.761,6.166-6.167,6.166v17.148c3.406,0,6.167,2.76,6.167,6.166
	c0,3.405-2.761,6.168-6.167,6.168v17.146c3.406,0,6.166,2.761,6.166,6.167c0,3.405-2.76,6.167-6.166,6.167v17.146
	c3.406,0,6.167,2.762,6.167,6.168c0,3.404-2.761,6.166-6.167,6.166v17.146c3.406,0,6.167,2.763,6.167,6.167
	s-2.761,6.166-6.167,6.166v17.149c3.406,0,6.167,2.76,6.167,6.166c0,3.404-2.761,6.166-6.167,6.166v17.146
	c3.406,0,6.167,2.764,6.167,6.166c0,3.406-2.761,6.166-6.167,6.166v17.148c3.406,0,6.167,2.762,6.167,6.168
	c0,3.404-2.761,6.166-6.167,6.166v17.145c3.406,0,6.166,2.764,6.166,6.166c0,3.406-2.76,6.168-6.166,6.168v17.146
	c3.406,0,6.167,2.762,6.167,6.168s-2.761,6.166-6.167,6.166v17.146c3.406,0,6.167,2.762,6.167,6.166s-2.761,6.168-6.167,6.168
	v17.146c3.406,0,6.166,2.76,6.166,6.166s-2.76,6.168-6.166,6.168v17.145c3.406,0,6.167,2.764,6.167,6.168s-2.761,6.166-6.167,6.166
	v17.148c3.406,0,6.167,2.762,6.167,6.168c0,3.404-2.761,6.166-6.167,6.166v-0.006v17.148c3.406,0,6.167,2.762,6.167,6.168
	c0,3.404-2.761,6.166-6.167,6.166l0.002,4.906c33.81,0,61.218,28.742,61.218,62.553h1062.678c0-33.811,27.408-61.219,61.223-61.219
	l-0.002-4.906L1352.026,478.365z"/>
</svg>
