<?xml version="1.0" encoding="utf-8"?>
<!-- Generator: Adobe Illustrator 16.0.0, SVG Export Plug-In . SVG Version: 6.00 Build 0)  -->
<!DOCTYPE svg PUBLIC "-//W3C//DTD SVG 1.1//EN" "http://www.w3.org/Graphics/SVG/1.1/DTD/svg11.dtd">
<svg version="1.1" id="Calque_1" xmlns="http://www.w3.org/2000/svg" xmlns:xlink="http://www.w3.org/1999/xlink" x="0px" y="0px"
	 width="1190.5px" height="415.167px" viewBox="0 0 1190.5 415.167" enable-background="new 0 0 1190.5 415.167"
	 xml:space="preserve">
<path fill="none" stroke="#1D1D1B" stroke-width="3" stroke-miterlimit="10" d="M1126.808,1.92H64.129
	c0,33.81-27.409,61.219-61.218,61.219v4.905c3.406,0,6.167,2.761,6.167,6.167c0,3.405-2.761,6.166-6.167,6.166v17.148
	c3.406,0,6.167,2.761,6.167,6.167c0,3.405-2.761,6.166-6.167,6.166v17.148c3.406,0,6.167,2.761,6.167,6.167
	c0,3.405-2.761,6.166-6.167,6.166v17.148c3.406,0,6.166,2.761,6.166,6.166c0,3.406-2.76,6.167-6.166,6.167v17.147
	c3.406,0,6.167,2.762,6.167,6.168c0,3.405-2.761,6.166-6.167,6.166v17.147c3.406,0,6.167,2.761,6.167,6.167
	c0,3.405-2.761,6.167-6.167,6.167v17.147c3.406,0,6.166,2.761,6.166,6.167c0,3.405-2.76,6.167-6.166,6.167v17.147
	c3.406,0,6.167,2.761,6.167,6.167c0,3.405-2.761,6.166-6.167,6.166v17.148c3.406,0,6.167,2.761,6.167,6.167
	c0,3.405-2.761,6.166-6.167,6.166v17.148c3.406,0,6.167,2.761,6.167,6.167c0,3.405-2.761,6.166-6.167,6.166v6.238
	c33.81,0,61.218,27.409,61.218,61.219h1062.678c0-33.81,27.408-61.219,61.219-61.219v-4.905c-3.406,0-6.168-2.761-6.168-6.167
	c0-3.405,2.762-6.166,6.168-6.166v-17.148c-3.406,0-6.168-2.761-6.168-6.167c0-3.405,2.762-6.166,6.168-6.166V288.08
	c-3.406,0-6.168-2.761-6.168-6.167c0-3.405,2.762-6.166,6.168-6.166v-17.148c-3.406,0-6.166-2.761-6.166-6.166
	c0-3.406,2.76-6.167,6.166-6.167v-17.147c-3.406,0-6.168-2.762-6.168-6.168c0-3.405,2.762-6.166,6.168-6.166l-0.002-17.147
	c-3.404,0-6.166-2.761-6.166-6.167c0-3.405,2.762-6.167,6.166-6.167v-17.147c-3.404,0-6.166-2.761-6.166-6.167
	c0-3.405,2.762-6.167,6.166-6.167v-17.147c-3.404,0-6.166-2.761-6.166-6.167c0-3.405,2.762-6.166,6.166-6.166v-17.148
	c-3.404,0-6.166-2.761-6.166-6.167c0-3.405,2.762-6.166,6.166-6.166V81.71c-3.404,0-6.166-2.761-6.166-6.167
	c0-3.405,2.762-6.166,6.166-6.166v-6.238C1154.216,63.139,1126.808,35.73,1126.808,1.92z"/>
</svg>
